<svg version="1.1" viewBox="0.0 0.0 1024.0 768.0" fill="none" stroke="none" stroke-linecap="square" stroke-miterlimit="10" xmlns:xlink="http://www.w3.org/1999/xlink" xmlns="http://www.w3.org/2000/svg"><clipPath id="p.0"><path d="m0 0l1024.0 0l0 768.0l-1024.0 0l0 -768.0z" clip-rule="nonzero"/></clipPath><g clip-path="url(#p.0)"><path fill="#000000" fill-opacity="0.0" d="m0 0l1024.0 0l0 768.0l-1024.0 0z" fill-rule="evenodd"/><path fill="#b45f06" d="m286.35696 193.79927l0 0c0 -37.654694 30.525146 -68.17985 68.17984 -68.17985l287.01038 0l0 0c18.082458 0 35.424255 7.18322 48.21045 19.969414c12.786194 12.786194 19.969421 30.128006 19.969421 48.210434l0 272.71118c0 37.654694 -30.525146 68.17987 -68.17987 68.17987l-287.01038 0c-37.654694 0 -68.17984 -30.525177 -68.17984 -68.17987z" fill-rule="evenodd"/><path stroke="#000000" stroke-width="1.0" stroke-linejoin="round" stroke-linecap="butt" d="m286.35696 193.79927l0 0c0 -37.654694 30.525146 -68.17985 68.17984 -68.17985l287.01038 0l0 0c18.082458 0 35.424255 7.18322 48.21045 19.969414c12.786194 12.786194 19.969421 30.128006 19.969421 48.210434l0 272.71118c0 37.654694 -30.525146 68.17987 -68.17987 68.17987l-287.01038 0c-37.654694 0 -68.17984 -30.525177 -68.17984 -68.17987z" fill-rule="evenodd"/><path fill="#000000" fill-opacity="0.0" d="m322.15222 202.32808l351.77954 0l0 255.65355l-351.77954 0z" fill-rule="evenodd"/><path fill="#d0e0e3" d="m348.74512 288.12808l0 -57.265625l41.40625 0l0 6.75l-33.828125 0l0 17.546875l31.6875 0l0 6.71875l-31.6875 0l0 19.484375l35.15625 0l0 6.765625l-42.734375 0zm47.625 0l15.15625 -21.5625l-14.03125 -19.921875l8.796875 0l6.359375 9.71875q1.796875 2.78125 2.890625 4.65625q1.71875 -2.578125 3.171875 -4.578125l6.984375 -9.796875l8.40625 0l-14.34375 19.53125l15.4375 21.953125l-8.640625 0l-8.515625 -12.890625l-2.265625 -3.484375l-10.890625 16.375l-8.515625 0zm71.75 -5.125q-3.90625 3.328125 -7.515625 4.703125q-3.609375 1.359375 -7.75 1.359375q-6.84375 0 -10.515625 -3.34375q-3.671875 -3.34375 -3.671875 -8.53125q0 -3.046875 1.390625 -5.5625q1.390625 -2.53125 3.625 -4.046875q2.25 -1.53125 5.0625 -2.3125q2.078125 -0.546875 6.25 -1.046875q8.515625 -1.015625 12.546875 -2.421875q0.03125 -1.453125 0.03125 -1.84375q0 -4.296875 -1.984375 -6.046875q-2.703125 -2.390625 -8.015625 -2.390625q-4.953125 0 -7.328125 1.75q-2.359375 1.734375 -3.484375 6.140625l-6.875 -0.9375q0.9375 -4.40625 3.078125 -7.125q2.15625 -2.71875 6.21875 -4.171875q4.0625 -1.46875 9.40625 -1.46875q5.3125 0 8.625 1.25q3.328125 1.25 4.890625 3.140625q1.5625 1.890625 2.1875 4.78125q0.359375 1.796875 0.359375 6.484375l0 9.375q0 9.8125 0.4375 12.40625q0.453125 2.59375 1.78125 4.984375l-7.34375 0q-1.09375 -2.1875 -1.40625 -5.125zm-0.578125 -15.703125q-3.828125 1.5625 -11.484375 2.65625q-4.34375 0.625 -6.140625 1.40625q-1.796875 0.78125 -2.78125 2.296875q-0.96875 1.5 -0.96875 3.328125q0 2.8125 2.125 4.6875q2.140625 1.875 6.234375 1.875q4.0625 0 7.21875 -1.765625q3.171875 -1.78125 4.65625 -4.875q1.140625 -2.375 1.140625 -7.03125l0 -2.578125zm18.007812 20.828125l0 -41.484375l6.28125 0l0 5.8125q1.953125 -3.046875 5.1875 -4.890625q3.25 -1.859375 7.390625 -1.859375q4.609375 0 7.5625 1.921875q2.953125 1.90625 4.15625 5.34375q4.921875 -7.265625 12.8125 -7.265625q6.171875 0 9.484375 3.421875q3.328125 3.40625 3.328125 10.515625l0 28.484375l-6.984375 0l0 -26.140625q0 -4.21875 -0.6875 -6.0625q-0.6875 -1.859375 -2.484375 -2.984375q-1.796875 -1.140625 -4.21875 -1.140625q-4.375 0 -7.265625 2.90625q-2.890625 2.90625 -2.890625 9.3125l0 24.109375l-7.03125 0l0 -26.953125q0 -4.6875 -1.71875 -7.03125q-1.71875 -2.34375 -5.625 -2.34375q-2.96875 0 -5.484375 1.5625q-2.515625 1.5625 -3.65625 4.578125q-1.125 3.0 -1.125 8.65625l0 21.53125l-7.03125 0zm66.640625 15.90625l0 -57.390625l6.40625 0l0 5.390625q2.265625 -3.171875 5.109375 -4.75q2.859375 -1.578125 6.921875 -1.578125q5.3125 0 9.375 2.734375q4.0625 2.734375 6.125 7.71875q2.078125 4.96875 2.078125 10.90625q0 6.375 -2.296875 11.46875q-2.28125 5.09375 -6.640625 7.8125q-4.34375 2.71875 -9.15625 2.71875q-3.515625 0 -6.3125 -1.484375q-2.78125 -1.484375 -4.578125 -3.75l0 20.203125l-7.03125 0zm6.359375 -36.421875q0 8.015625 3.234375 11.84375q3.25 3.828125 7.859375 3.828125q4.6875 0 8.03125 -3.96875q3.34375 -3.96875 3.34375 -12.28125q0 -7.9375 -3.265625 -11.875q-3.265625 -3.953125 -7.796875 -3.953125q-4.484375 0 -7.953125 4.203125q-3.453125 4.203125 -3.453125 12.203125zm37.976562 20.515625l0 -57.265625l7.03125 0l0 57.265625l-7.03125 0zm46.320312 -13.359375l7.265625 0.890625q-1.71875 6.375 -6.375 9.890625q-4.640625 3.515625 -11.859375 3.515625q-9.109375 0 -14.4375 -5.609375q-5.328125 -5.609375 -5.328125 -15.71875q0 -10.46875 5.390625 -16.25q5.390625 -5.78125 13.984375 -5.78125q8.3125 0 13.578125 5.671875q5.28125 5.65625 5.28125 15.921875q0 0.625 -0.03125 1.875l-30.9375 0q0.390625 6.84375 3.859375 10.484375q3.484375 3.625 8.671875 3.625q3.875 0 6.609375 -2.03125q2.734375 -2.03125 4.328125 -6.484375zm-23.078125 -11.375l23.15625 0q-0.46875 -5.234375 -2.65625 -7.84375q-3.359375 -4.0625 -8.703125 -4.0625q-4.84375 0 -8.15625 3.25q-3.296875 3.234375 -3.640625 8.65625z" fill-rule="nonzero"/><path fill="#d0e0e3" d="m426.74512 384.12808l22.0 -57.265625l8.171875 0l23.4375 57.265625l-8.640625 0l-6.671875 -17.34375l-23.953125 0l-6.28125 17.34375l-8.0625 0zm16.53125 -23.515625l19.421875 0l-5.984375 -15.859375q-2.734375 -7.234375 -4.0625 -11.875q-1.09375 5.5 -3.078125 10.9375l-6.296875 16.796875zm42.234375 39.421875l0 -57.390625l6.40625 0l0 5.390625q2.265625 -3.171875 5.109375 -4.75q2.859375 -1.578125 6.921875 -1.578125q5.3125 0 9.375 2.734375q4.0625 2.734375 6.125 7.71875q2.078125 4.96875 2.078125 10.90625q0 6.375 -2.296875 11.46875q-2.28125 5.09375 -6.640625 7.8125q-4.34375 2.71875 -9.15625 2.71875q-3.515625 0 -6.3125 -1.484375q-2.78125 -1.484375 -4.578125 -3.75l0 20.203125l-7.03125 0zm6.359375 -36.421875q0 8.015625 3.234375 11.84375q3.25 3.828125 7.859375 3.828125q4.6875 0 8.03125 -3.96875q3.34375 -3.96875 3.34375 -12.28125q0 -7.9375 -3.265625 -11.875q-3.265625 -3.953125 -7.796875 -3.953125q-4.484375 0 -7.953125 4.203125q-3.453125 4.203125 -3.453125 12.203125zm38.132812 36.421875l0 -57.390625l6.40625 0l0 5.390625q2.265625 -3.171875 5.109375 -4.75q2.859375 -1.578125 6.921875 -1.578125q5.3125 0 9.375 2.734375q4.0625 2.734375 6.125 7.71875q2.078125 4.96875 2.078125 10.90625q0 6.375 -2.296875 11.46875q-2.28125 5.09375 -6.640625 7.8125q-4.34375 2.71875 -9.15625 2.71875q-3.515625 0 -6.3125 -1.484375q-2.78125 -1.484375 -4.578125 -3.75l0 20.203125l-7.03125 0zm6.359375 -36.421875q0 8.015625 3.234375 11.84375q3.25 3.828125 7.859375 3.828125q4.6875 0 8.03125 -3.96875q3.34375 -3.96875 3.34375 -12.28125q0 -7.9375 -3.265625 -11.875q-3.265625 -3.953125 -7.796875 -3.953125q-4.484375 0 -7.953125 4.203125q-3.453125 4.203125 -3.453125 12.203125z" fill-rule="nonzero"/></g></svg>