<svg version="1.1" viewBox="0.0 0.0 1024.0 768.0" fill="none" stroke="none" stroke-linecap="square" stroke-miterlimit="10" xmlns:xlink="http://www.w3.org/1999/xlink" xmlns="http://www.w3.org/2000/svg"><clipPath id="p.0"><path d="m0 0l1024.0 0l0 768.0l-1024.0 0l0 -768.0z" clip-rule="nonzero"/></clipPath><g clip-path="url(#p.0)"><path fill="#000000" fill-opacity="0.0" d="m0 0l1024.0 0l0 768.0l-1024.0 0z" fill-rule="evenodd"/><path fill="#f3f3f3" d="m536.3963 380.2546l-187.1417 0l93.57086 -286.3386z" fill-rule="evenodd"/><path fill="#000000" fill-opacity="0.0" d="m318.0551 155.27559l339.5276 0l0 81.82677l-339.5276 0z" fill-rule="evenodd"/><path fill="#0c343d" d="m332.3051 225.71559l0 -45.8125l30.90625 0l0 5.40625l-24.84375 0l0 14.1875l21.5 0l0 5.40625l-21.5 0l0 20.8125l-6.0625 0zm59.71875 -4.09375q-3.125 2.65625 -6.015625 3.75q-2.890625 1.09375 -6.203125 1.09375q-5.46875 0 -8.40625 -2.671875q-2.9375 -2.671875 -2.9375 -6.828125q0 -2.4375 1.109375 -4.453125q1.109375 -2.015625 2.90625 -3.234375q1.796875 -1.21875 4.046875 -1.84375q1.65625 -0.4375 5.0 -0.84375q6.8125 -0.8125 10.03125 -1.9375q0.03125 -1.15625 0.03125 -1.46875q0 -3.4375 -1.59375 -4.84375q-2.15625 -1.90625 -6.40625 -1.90625q-3.96875 0 -5.859375 1.390625q-1.890625 1.390625 -2.796875 4.921875l-5.5 -0.75q0.75 -3.53125 2.46875 -5.703125q1.71875 -2.171875 4.96875 -3.34375q3.25 -1.171875 7.53125 -1.171875q4.25 0 6.90625 1.0q2.65625 1.0 3.90625 2.515625q1.25 1.515625 1.75 3.828125q0.28125 1.4375 0.28125 5.1875l0 7.5q0 7.84375 0.359375 9.921875q0.359375 2.078125 1.421875 3.984375l-5.875 0q-0.875 -1.75 -1.125 -4.09375zm-0.46875 -12.5625q-3.0625 1.25 -9.1875 2.125q-3.46875 0.5 -4.90625 1.125q-1.4375 0.625 -2.21875 1.828125q-0.78125 1.203125 -0.78125 2.671875q0 2.25 1.703125 3.75q1.703125 1.5 4.984375 1.5q3.25 0 5.78125 -1.421875q2.53125 -1.421875 3.71875 -3.890625q0.90625 -1.90625 0.90625 -5.625l0 -2.0625zm14.4375 16.65625l0 -45.8125l5.625 0l0 26.125l13.3125 -13.5l7.28125 0l-12.6875 12.3125l13.96875 20.875l-6.9375 0l-10.96875 -16.96875l-3.96875 3.8125l0 13.15625l-5.625 0zm54.6875 -10.6875l5.8125 0.71875q-1.375 5.09375 -5.09375 7.90625q-3.71875 2.8125 -9.5 2.8125q-7.28125 0 -11.546875 -4.484375q-4.265625 -4.484375 -4.265625 -12.578125q0 -8.375 4.3125 -13.0q4.3125 -4.625 11.1875 -4.625q6.65625 0 10.875 4.53125q4.21875 4.53125 4.21875 12.75q0 0.5 -0.03125 1.5l-24.75 0q0.3125 5.46875 3.09375 8.375q2.78125 2.90625 6.9375 2.90625q3.09375 0 5.28125 -1.625q2.1875 -1.625 3.46875 -5.1875zm-18.46875 -9.09375l18.53125 0q-0.375 -4.1875 -2.125 -6.28125q-2.6875 -3.25 -6.96875 -3.25q-3.875 0 -6.515625 2.59375q-2.640625 2.59375 -2.921875 6.9375z" fill-rule="nonzero"/><path fill="#000000" fill-opacity="0.0" d="m404.98163 211.51968l278.14172 0l0 143.18109l-278.14172 0z" fill-rule="evenodd"/><path fill="#990000" d="m413.841 312.6797l26.390625 -68.71875l9.796875 0l28.125 68.71875l-10.359375 0l-8.015625 -20.8125l-28.734375 0l-7.546875 20.8125l-9.65625 0zm19.828125 -28.21875l23.296875 0l-7.171875 -19.03125q-3.28125 -8.671875 -4.875 -14.25q-1.3125 6.609375 -3.703125 13.125l-7.546875 20.15625zm50.671875 47.296875l0 -68.859375l7.6875 0l0 6.46875q2.71875 -3.796875 6.140625 -5.6875q3.421875 -1.90625 8.296875 -1.90625q6.375 0 11.25 3.28125q4.875 3.28125 7.359375 9.265625q2.484375 5.96875 2.484375 13.09375q0 7.640625 -2.75 13.765625q-2.734375 6.109375 -7.96875 9.375q-5.21875 3.25 -10.984375 3.25q-4.21875 0 -7.578125 -1.78125q-3.34375 -1.78125 -5.5 -4.5l0 24.234375l-8.4375 0zm7.640625 -43.6875q0 9.609375 3.890625 14.203125q3.890625 4.59375 9.421875 4.59375q5.625 0 9.625 -4.75q4.015625 -4.765625 4.015625 -14.75q0 -9.515625 -3.921875 -14.25q-3.90625 -4.734375 -9.34375 -4.734375q-5.390625 0 -9.546875 5.046875q-4.140625 5.03125 -4.140625 14.640625zm45.75 43.6875l0 -68.859375l7.6875 0l0 6.46875q2.71875 -3.796875 6.140625 -5.6875q3.421875 -1.90625 8.296875 -1.90625q6.375 0 11.25 3.28125q4.875 3.28125 7.359375 9.265625q2.484375 5.96875 2.484375 13.09375q0 7.640625 -2.75 13.765625q-2.734375 6.109375 -7.96875 9.375q-5.21875 3.25 -10.984375 3.25q-4.21875 0 -7.578125 -1.78125q-3.34375 -1.78125 -5.5 -4.5l0 24.234375l-8.4375 0zm7.640625 -43.6875q0 9.609375 3.890625 14.203125q3.890625 4.59375 9.421875 4.59375q5.625 0 9.625 -4.75q4.015625 -4.765625 4.015625 -14.75q0 -9.515625 -3.921875 -14.25q-3.90625 -4.734375 -9.34375 -4.734375q-5.390625 0 -9.546875 5.046875q-4.140625 5.03125 -4.140625 14.640625z" fill-rule="nonzero"/></g></svg>